<?xml version="1.0" encoding="UTF-8" standalone="no"?>
<svg
   xmlns:dc="http://purl.org/dc/elements/1.1/"
   xmlns:cc="http://creativecommons.org/ns#"
   xmlns:rdf="http://www.w3.org/1999/02/22-rdf-syntax-ns#"
   xmlns:svg="http://www.w3.org/2000/svg"
   xmlns="http://www.w3.org/2000/svg"
   width="33.866665mm"
   height="60.029533mm"
   viewBox="0 0 33.866665 60.029533"
   version="1.1"
   id="svg1896">
  <defs
     id="defs1890" />
  <metadata
     id="metadata1893">
    <rdf:RDF>
      <cc:Work
         rdf:about="">
        <dc:format>image/svg+xml</dc:format>
        <dc:type
           rdf:resource="http://purl.org/dc/dcmitype/StillImage" />
        <dc:title></dc:title>
      </cc:Work>
    </rdf:RDF>
  </metadata>
  <g
     id="layer1"
     transform="translate(-88.9,-118.1519)">
    <g
       id="g1197"
       transform="translate(12.131876,-20.24527)">
      <g
         id="g1059"
         transform="matrix(0.99607843,0,0,0.99607843,75.772046,162.56788)">
        <path
           fill="#ffcb4c"
           d="M 35,17 C 35,26.389 27.389,34 18,34 8.611,34 1,26.389 1,17 1,7.611 8.611,0 18,0 27.389,0 35,7.611 35,17"
           id="path1051" />
        <ellipse
           fill="#65471b"
           cx="17.812"
           cy="23.125"
           rx="4.0619998"
           ry="1.9299999"
           id="ellipse1053" />
        <path
           fill="#f19020"
           d="m 25.35,25.981 -0.033,-0.02 c -0.839,-0.515 -1.947,-0.25 -2.462,0.589 l -0.151,0.245 c -0.542,-0.562 -1.25,-0.974 -2.068,-1.141 l -1.399,-0.286 1.272,-6.224 c 0.197,-0.965 -0.431,-1.915 -1.395,-2.112 l -0.038,-0.008 c -0.965,-0.197 -1.915,0.431 -2.112,1.395 l -1.673,8.183 -0.015,0.074 -0.313,1.531 -10e-4,0.01 -1.128,5.533 c -0.22,1.078 0.27,2.25 1.895,2.25 H 19 c 2.804,0 3.635,-1.01 4.198,-3.093 l 2.741,-4.463 c 0.514,-0.839 0.25,-1.947 -0.589,-2.463 z"
           id="path1055" />
        <path
           fill="#65471b"
           d="m 22.409,30.743 c -0.02,0 -0.042,-0.002 -0.064,-0.006 -0.184,-0.034 -0.305,-0.212 -0.269,-0.397 0.059,-0.312 -0.002,-0.587 -0.187,-0.839 -0.59,-0.808 -2.289,-1.175 -2.894,-1.248 -0.186,-0.022 -0.319,-0.192 -0.296,-0.377 0.022,-0.186 0.184,-0.321 0.377,-0.296 0.101,0.011 2.474,0.31 3.36,1.521 0.298,0.407 0.401,0.868 0.306,1.368 -0.031,0.161 -0.173,0.274 -0.333,0.274 z m -3.259,4.73 c -0.253,0 -0.53,-0.031 -0.833,-0.102 -0.61,-0.144 -1.04,-0.499 -1.18,-0.975 -0.118,-0.401 -0.01,-0.825 0.289,-1.135 0.388,-0.402 1.003,-0.534 1.695,-0.358 0.181,0.046 0.291,0.231 0.245,0.413 -0.046,0.18 -0.229,0.291 -0.413,0.245 -0.445,-0.114 -0.825,-0.05 -1.038,0.171 -0.128,0.132 -0.175,0.309 -0.127,0.473 0.069,0.236 0.319,0.421 0.685,0.506 1.18,0.277 1.833,-0.186 2.174,-0.625 0.508,-0.653 0.568,-1.538 0.387,-1.885 -0.422,-0.812 -2.049,-0.992 -2.64,-0.993 -0.187,0 -0.339,-0.152 -0.339,-0.339 0,-0.187 0.152,-0.339 0.339,-0.339 0.103,0 2.542,0.015 3.242,1.359 0.305,0.585 0.218,1.751 -0.454,2.614 -0.308,0.394 -0.943,0.97 -2.032,0.97 z M 14.222,13.222 c 0,1.391 -0.846,2.519 -1.889,2.519 -1.043,0 -1.889,-1.127 -1.889,-2.519 0,-1.391 0.845,-2.519 1.889,-2.519 1.043,0.001 1.889,1.128 1.889,2.519 z m 15.664,-2.951 c 0.222,0 0.445,-0.069 0.637,-0.213 0.47,-0.352 0.564,-1.018 0.212,-1.487 -3.466,-4.622 -8.092,-4.675 -8.287,-4.675 -0.587,0 -1.062,0.476 -1.062,1.063 0,0.585 0.473,1.06 1.058,1.062 0.166,0.002 3.792,0.091 6.592,3.825 0.208,0.278 0.527,0.425 0.85,0.425 z m -8.108,2.951 c 0,1.391 0.846,2.519 1.889,2.519 1.043,0 1.889,-1.127 1.889,-2.519 0,-1.391 -0.845,-2.519 -1.889,-2.519 -1.044,0.001 -1.889,1.128 -1.889,2.519 z M 6.114,10.271 C 5.892,10.271 5.669,10.202 5.477,10.058 5.008,9.706 4.913,9.04 5.265,8.571 8.731,3.949 13.357,3.896 13.552,3.896 c 0.587,0 1.062,0.476 1.062,1.063 0,0.585 -0.473,1.06 -1.058,1.062 -0.166,0.002 -3.792,0.091 -6.592,3.825 -0.208,0.278 -0.527,0.425 -0.85,0.425 z"
           id="path1057" />
      </g>
      <g
         id="g1164">
        <path
           fill="#bf6952"
           d="m 106.48037,156.66811 c 0.28279,-1.2259 0.18878,-2.53724 -0.35581,-3.84237 -0.5267,-1.26241 -1.43485,-2.26069 -2.54111,-2.93112 0.24704,-0.92602 0.18178,-1.92275 -0.25171,-2.91324 -0.65334,-1.49158 -2.06646,-2.48675 -3.660593,-2.76719 0.19344,-0.44437 0.2556,-1.00138 0.028,-1.68348 -0.77688,-2.33058 -3.88434,-0.77686 -6.21492,-3.88354 -1.89556,1.13734 -2.30729,2.82779 -2.23583,4.26266 -1.88078,0.32007 -2.95209,0.72714 -2.95209,0.72714 v 0.001 c -1.05653,0.42727 -1.80387,1.46283 -1.80387,2.67397 0,0.68286 0.24704,1.30203 0.64324,1.7961 l -0.53759,0.20044 7.8e-4,0.002 c -1.8101,0.67665 -3.08803,2.31196 -3.08803,4.22537 0,0.81338 0.23305,1.5747 0.63702,2.23582 -2.19309,0.98584 -3.72429,3.12533 -3.72429,5.62605 0,3.43219 2.86741,6.21492 6.40447,6.21492 2.53958,0 5.09546,-0.54614 7.4043,-1.29347 1.74251,0.80794 4.42425,1.29347 8.461623,1.29347 3.1463,0 5.69674,-2.55044 5.69674,-5.69674 0,-1.69047 -0.74034,-3.20457 -1.91031,-4.24868 z"
           id="path1061"
           style="fill:#e6e6e6;stroke-width:0.776865" />
        <path
           style="fill:#e6e6e6;stroke:#999999;stroke-width:0.5;stroke-linecap:round;stroke-linejoin:miter;stroke-miterlimit:4;stroke-dasharray:none;stroke-opacity:1"
           d="m 94.232337,165.31917 c 0,0 -9.8796,-4.51981 -10.08448,-10.5475"
           id="path1063" />
        <path
           style="fill:#e6e6e6;stroke:#999999;stroke-width:0.5;stroke-linecap:round;stroke-linejoin:miter;stroke-miterlimit:4;stroke-dasharray:none;stroke-opacity:1"
           d="m 106.48037,156.66811 c 0,0 -21.230113,-2.04655 -19.344693,-8.56007"
           id="path1065" />
        <path
           style="fill:#e6e6e6;stroke:#999999;stroke-width:0.5;stroke-linecap:round;stroke-linejoin:miter;stroke-miterlimit:4;stroke-dasharray:none;stroke-opacity:1"
           d="m 103.58345,149.89462 c 0,0 -14.570883,-2.72213 -12.335053,-6.98479"
           id="path1067" />
        <path
           style="fill:#e6e6e6;stroke:#999999;stroke-width:0.5;stroke-linecap:round;stroke-linejoin:miter;stroke-miterlimit:4;stroke-dasharray:none;stroke-opacity:1"
           d="m 99.671147,144.21419 c 0,0 -7.93781,-2.63444 -6.18692,-5.56702"
           id="path1069" />
      </g>
    </g>
  </g>
</svg>
