<?xml version="1.0" encoding="UTF-8" standalone="no"?>
<svg
   xmlns:dc="http://purl.org/dc/elements/1.1/"
   xmlns:cc="http://creativecommons.org/ns#"
   xmlns:rdf="http://www.w3.org/1999/02/22-rdf-syntax-ns#"
   xmlns:svg="http://www.w3.org/2000/svg"
   xmlns="http://www.w3.org/2000/svg"
   width="33.866665mm"
   height="56.386372mm"
   viewBox="0 0 33.866665 56.386372"
   version="1.1"
   id="svg3112">
  <defs
     id="defs3106" />
  <metadata
     id="metadata3109">
    <rdf:RDF>
      <cc:Work
         rdf:about="">
        <dc:format>image/svg+xml</dc:format>
        <dc:type
           rdf:resource="http://purl.org/dc/dcmitype/StillImage" />
        <dc:title></dc:title>
      </cc:Work>
    </rdf:RDF>
  </metadata>
  <g
     id="layer1"
     transform="translate(-88.9,-119.97348)">
    <g
       id="g1215"
       transform="translate(-46.78164,-19.812329)">
      <g
         id="g868"
         transform="matrix(0.94056858,0,0,0.94056858,135.68754,162.30483)">
        <path
           fill="#ffcb4c"
           d="M 35.597,14.232 C 37.68,23.952 31.489,33.521 21.769,35.604 12.049,37.687 2.48,31.496 0.397,21.776 -1.686,12.056 4.506,2.487 14.225,0.404 23.945,-1.68 33.514,4.512 35.597,14.232"
           id="path833" />
        <path
           fill="#f4f7f9"
           d="m 29.284,9.012 c 0.779,3.636 -1.537,7.216 -5.173,7.995 -3.636,0.779 -7.216,-1.537 -7.996,-5.173 -0.779,-3.636 1.537,-7.216 5.173,-7.995 3.636,-0.779 7.217,1.536 7.996,5.173 z"
           id="path835" />
        <circle
           fill="#292f33"
           cx="22.306"
           cy="9.2910004"
           r="2.0369999"
           id="circle837" />
        <path
           fill="#f4f7f9"
           d="m 14.088,14.282 c 0.456,2.126 -0.899,4.219 -3.025,4.675 -2.126,0.456 -4.219,-0.899 -4.675,-3.025 -0.456,-2.126 0.899,-4.219 3.025,-4.675 2.126,-0.456 4.219,0.899 4.675,3.025 z"
           id="path839" />
        <circle
           transform="rotate(-12.095,10.236,15.853)"
           fill="#292f33"
           cx="10.238"
           cy="15.857"
           id="ellipse841"
           r="1.942" />
        <path
           fill="#65471b"
           d="m 18.625,20.937 c -3.543,0.759 -5.981,0.85 -9.01,0.908 -0.691,0.015 -1.955,0.419 -1.536,2.375 0.838,3.911 6.379,7.837 12.642,6.495 6.262,-1.342 9.708,-7.194 8.87,-11.105 -0.419,-1.956 -1.739,-1.808 -2.375,-1.536 -2.786,1.187 -5.048,2.104 -8.591,2.863 z"
           id="path843" />
        <path
           fill="#e8596e"
           d="m 11,24.004 v 6 c 0,3 2,6 6,6 4,0 6,-3 6,-6 v -6 z"
           id="path845" />
        <path
           fill="#dd2f45"
           d="m 17,31.883 c 0.301,0 0.545,-0.244 0.545,-0.545 v -6.295 h -1.091 v 6.295 c 10e-4,0.301 0.245,0.545 0.546,0.545 z"
           id="path847" />
        <path
           fill="#ffffff"
           d="m 10.034,23.801 c 0,0 3.143,0.349 9.01,-0.908 5.867,-1.257 8.591,-2.864 8.591,-2.864 0,0 -1.117,4.33 -7.962,5.797 -6.845,1.467 -9.639,-2.025 -9.639,-2.025 z"
           id="path849" />
      </g>
      <g
         id="g1171">
        <path
           fill="#bf6952"
           d="m 164.71329,158.05675 c 0.28279,-1.2259 0.18878,-2.53724 -0.35581,-3.84237 -0.5267,-1.26241 -1.43485,-2.26069 -2.54111,-2.93112 0.24704,-0.92602 0.18178,-1.92275 -0.25171,-2.91324 -0.65334,-1.49158 -2.06646,-2.48675 -3.66059,-2.76719 0.19344,-0.44437 0.2556,-1.00138 0.028,-1.68348 -0.77688,-2.33058 -3.88434,-0.77686 -6.21492,-3.88354 -1.89556,1.13734 -2.30729,2.82779 -2.23583,4.26266 -1.88078,0.32007 -2.95209,0.72714 -2.95209,0.72714 v 0.001 c -1.05653,0.42727 -1.80387,1.46283 -1.80387,2.67397 0,0.68286 0.24704,1.30203 0.64324,1.7961 l -0.53759,0.20044 7.8e-4,0.002 c -1.8101,0.67665 -3.08803,2.31196 -3.08803,4.22537 0,0.81338 0.23305,1.5747 0.63702,2.23582 -2.19309,0.98584 -3.72429,3.12533 -3.72429,5.62605 0,3.43219 2.86741,6.21492 6.40447,6.21492 2.53958,0 5.09546,-0.54614 7.4043,-1.29347 1.74251,0.80794 4.42425,1.29347 8.46162,1.29347 3.1463,0 5.69674,-2.55044 5.69674,-5.69674 0,-1.69047 -0.74034,-3.20457 -1.91031,-4.24868 z"
           id="path870"
           style="fill:#e6e6e6;stroke-width:0.776865" />
        <path
           style="fill:#e6e6e6;stroke:#999999;stroke-width:0.5;stroke-linecap:round;stroke-linejoin:miter;stroke-miterlimit:4;stroke-dasharray:none;stroke-opacity:1"
           d="m 152.46526,166.70781 c 0,0 -9.8796,-4.51981 -10.08448,-10.5475"
           id="path960" />
        <path
           style="fill:#e6e6e6;stroke:#999999;stroke-width:0.5;stroke-linecap:round;stroke-linejoin:miter;stroke-miterlimit:4;stroke-dasharray:none;stroke-opacity:1"
           d="m 164.71329,158.05675 c 0,0 -21.23011,-2.04655 -19.34469,-8.56007"
           id="path962" />
        <path
           style="fill:#e6e6e6;stroke:#999999;stroke-width:0.5;stroke-linecap:round;stroke-linejoin:miter;stroke-miterlimit:4;stroke-dasharray:none;stroke-opacity:1"
           d="m 161.81637,151.28326 c 0,0 -14.57088,-2.72213 -12.33505,-6.98479"
           id="path966" />
        <path
           style="fill:#e6e6e6;stroke:#999999;stroke-width:0.5;stroke-linecap:round;stroke-linejoin:miter;stroke-miterlimit:4;stroke-dasharray:none;stroke-opacity:1"
           d="m 157.90407,145.60283 c 0,0 -7.93781,-2.63444 -6.18692,-5.56702"
           id="path968" />
      </g>
    </g>
  </g>
</svg>
