<?xml version="1.0" encoding="UTF-8" standalone="no"?>
<svg
   xmlns:dc="http://purl.org/dc/elements/1.1/"
   xmlns:cc="http://creativecommons.org/ns#"
   xmlns:rdf="http://www.w3.org/1999/02/22-rdf-syntax-ns#"
   xmlns:svg="http://www.w3.org/2000/svg"
   xmlns="http://www.w3.org/2000/svg"
   width="33.866665mm"
   height="56.894745mm"
   viewBox="0 0 33.866665 56.894745"
   version="1.1"
   id="svg1263">
  <defs
     id="defs1257" />
  <metadata
     id="metadata1260">
    <rdf:RDF>
      <cc:Work
         rdf:about="">
        <dc:format>image/svg+xml</dc:format>
        <dc:type
           rdf:resource="http://purl.org/dc/dcmitype/StillImage" />
        <dc:title></dc:title>
      </cc:Work>
    </rdf:RDF>
  </metadata>
  <g
     id="layer1"
     transform="translate(-88.9,-119.71929)">
    <g
       id="g1184"
       transform="translate(71.131876,-19.820507)">
      <g
         id="g1037"
         transform="matrix(0.94074074,0,0,0.94074074,17.768124,162.56788)">
        <path
           fill="#da2f47"
           d="M 36,18 C 36,27.941 27.941,36 18,36 8.06,36 0,27.941 0,18 0,8.06 8.06,0 18,0 27.941,0 36,8.06 36,18"
           id="path1029" />
        <path
           fill="#292f33"
           d="M 25.485,29.879 C 25.44,29.7 24.317,25.5 18,25.5 c -6.318,0 -7.44,4.2 -7.485,4.379 -0.055,0.217 0.043,0.442 0.237,0.554 0.195,0.109 0.439,0.079 0.6,-0.077 C 11.371,30.337 13.306,28.5 18,28.5 c 4.694,0 6.63,1.837 6.648,1.855 0.096,0.095 0.224,0.145 0.352,0.145 0.084,0 0.169,-0.021 0.246,-0.064 0.196,-0.112 0.294,-0.339 0.239,-0.557 z M 15.707,15.293 C 12.452,12.038 7.221,12 7,12 6.448,12 6.001,12.447 6.001,12.998 6,13.55 6.447,13.998 6.999,14 7.028,14 8.924,14.023 10.982,14.737 10.389,15.377 10,16.371 10,17.5 c 0,1.934 1.119,3.5 2.5,3.5 1.381,0 2.5,-1.566 2.5,-3.5 0,-0.174 -0.019,-0.34 -0.037,-0.507 0.013,0 0.025,0.007 0.037,0.007 0.256,0 0.512,-0.098 0.707,-0.293 0.391,-0.391 0.391,-1.023 0,-1.414 z M 29,12 c -0.221,0 -5.451,0.038 -8.707,3.293 -0.391,0.391 -0.391,1.023 0,1.414 C 20.488,16.902 20.744,17 21,17 21.013,17 21.024,16.993 21.036,16.993 21.02,17.16 21,17.326 21,17.5 21,19.434 22.119,21 23.5,21 24.881,21 26,19.434 26,17.5 26,16.371 25.611,15.377 25.018,14.737 27.076,14.023 28.972,14 29.002,14 29.553,13.998 30,13.55 29.999,12.998 29.998,12.447 29.552,12 29,12 Z"
           id="path1031" />
        <path
           fill="#292f33"
           d="M 29.739,33 H 6.261 C 5.017,33 4,31.983 4,30.739 V 25 C 4,23.756 5.017,22.739 6.261,22.739 H 29.739 C 30.983,22.739 32,23.756 32,25 v 5.739 C 32,31.983 30.983,33 29.739,33 Z"
           id="path1033" />
        <path
           d="M 7.841,27.229 H 7.023 c -0.314,0 -0.457,-0.229 -0.457,-0.457 0,-0.228 0.143,-0.456 0.457,-0.456 h 0.95 l 0.209,-1.53 c 0.047,-0.342 0.19,-0.456 0.475,-0.456 0.228,0 0.438,0.151 0.438,0.38 0,0.143 0,0.076 -0.019,0.229 l -0.19,1.378 h 0.913 l 0.209,-1.53 c 0.047,-0.342 0.19,-0.456 0.475,-0.456 0.228,0 0.438,0.151 0.438,0.38 0,0.143 0,0.076 -0.019,0.229 l -0.191,1.378 h 0.818 c 0.314,0 0.456,0.229 0.456,0.456 0,0.228 -0.143,0.457 -0.456,0.457 h -0.951 l -0.152,1.083 h 0.818 c 0.314,0 0.456,0.229 0.456,0.457 0,0.228 -0.143,0.456 -0.456,0.456 h -0.951 l -0.209,1.53 c -0.048,0.343 -0.191,0.456 -0.476,0.456 -0.228,0 -0.438,-0.151 -0.438,-0.38 0,-0.143 0,-0.076 0.019,-0.229 L 9.38,29.226 H 8.468 l -0.209,1.53 c -0.048,0.343 -0.19,0.456 -0.476,0.456 -0.228,0 -0.438,-0.151 -0.438,-0.38 0,-0.143 0,-0.076 0.019,-0.229 l 0.19,-1.378 H 6.738 c -0.313,0 -0.456,-0.229 -0.456,-0.456 0,-0.229 0.143,-0.457 0.456,-0.457 h 0.951 z m 0.77,1.083 H 9.514 L 9.666,27.229 H 8.763 Z m 4.616,-2.5 c 0,-0.827 0.618,-1.54 1.464,-1.54 0.846,0 1.464,0.713 1.464,1.54 0,0.827 -0.618,1.531 -1.464,1.531 -0.847,0.001 -1.464,-0.703 -1.464,-1.531 z m 1.958,0 c 0,-0.304 -0.181,-0.57 -0.494,-0.57 -0.314,0 -0.495,0.267 -0.495,0.57 0,0.305 0.181,0.562 0.495,0.562 0.313,0 0.494,-0.257 0.494,-0.562 z m 2.31,-1.292 c 0.124,-0.237 0.219,-0.304 0.438,-0.304 0.295,0 0.561,0.237 0.561,0.532 0,0.076 0,0.143 -0.076,0.285 l -3.194,5.979 c -0.143,0.199 -0.2,0.313 -0.428,0.313 -0.247,0 -0.542,-0.237 -0.542,-0.522 0,-0.143 0.057,-0.275 0.095,-0.352 z m -0.922,5.219 c 0,-0.827 0.618,-1.54 1.464,-1.54 0.846,0 1.464,0.713 1.464,1.54 0,0.826 -0.618,1.53 -1.464,1.53 -0.847,0.001 -1.464,-0.704 -1.464,-1.53 z m 1.958,0 c 0,-0.305 -0.181,-0.57 -0.495,-0.57 -0.314,0 -0.495,0.266 -0.495,0.57 0,0.304 0.181,0.561 0.495,0.561 0.314,0 0.495,-0.257 0.495,-0.561 z m 2.486,0.789 c 0,-0.409 0.333,-0.742 0.741,-0.742 0.409,0 0.742,0.333 0.742,0.742 0,0.408 -0.333,0.741 -0.742,0.741 -0.408,0.001 -0.741,-0.332 -0.741,-0.741 z m 0.057,-5.609 c 0,-0.399 0.294,-0.646 0.684,-0.646 0.381,0 0.685,0.257 0.685,0.646 v 3.66 c 0,0.39 -0.304,0.646 -0.685,0.646 -0.39,0 -0.684,-0.247 -0.684,-0.646 z m 8.078,6.407 c -0.187,0 -0.304,-0.053 -0.431,-0.196 l -0.724,-0.79 -0.072,0.066 c -0.702,0.645 -1.308,0.919 -2.024,0.919 -1.109,0 -2.229,-0.632 -2.229,-2.044 0,-1.107 0.867,-1.769 1.384,-2.065 l 0.117,-0.067 -0.095,-0.098 c -0.425,-0.445 -0.599,-0.813 -0.599,-1.269 0,-1.077 0.983,-1.567 1.896,-1.567 0.764,0 1.84,0.453 1.84,1.458 0,0.951 -0.883,1.501 -1.153,1.647 l -0.115,0.062 1.161,1.341 0.444,-0.536 c 0.247,-0.297 0.391,-0.422 0.646,-0.422 0.205,0 0.424,0.184 0.424,0.523 0,0.254 -0.252,0.585 -0.499,0.875 l -0.297,0.335 0.706,0.838 c 0.131,0.156 0.185,0.239 0.185,0.428 0.001,0.295 -0.269,0.562 -0.565,0.562 z m -3.447,-3.474 c -0.428,0.287 -0.864,0.665 -0.864,1.291 0,0.656 0.427,1.079 1.089,1.079 0.552,0 0.909,-0.242 1.275,-0.606 l 0.071,-0.069 -1.5,-1.743 z m 0.671,-2.711 c -0.28,0 -0.67,0.229 -0.67,0.602 0,0.348 0.171,0.56 0.534,0.929 l 0.051,0.052 0.063,-0.033 c 0.497,-0.26 0.749,-0.553 0.749,-0.869 10e-4,-0.468 -0.376,-0.681 -0.727,-0.681 z"
           fill="#ffffff"
           id="path1035" />
      </g>
      <g
         id="g1157">
        <path
           fill="#bf6952"
           d="m 47.649965,157.81074 c 0.28279,-1.2259 0.18878,-2.53724 -0.35581,-3.84237 -0.5267,-1.26241 -1.43485,-2.26069 -2.54111,-2.93112 0.24704,-0.92602 0.18178,-1.92275 -0.25171,-2.91324 -0.65334,-1.49158 -2.06646,-2.48675 -3.66059,-2.76719 0.19344,-0.44437 0.2556,-1.00138 0.028,-1.68348 -0.77688,-2.33058 -3.88434,-0.77686 -6.21492,-3.88354 -1.89556,1.13734 -2.30729,2.82779 -2.23583,4.26266 -1.88078,0.32007 -2.95209,0.72714 -2.95209,0.72714 v 0.001 c -1.05653,0.42727 -1.80387,1.46283 -1.80387,2.67397 0,0.68286 0.24704,1.30203 0.64324,1.7961 l -0.53759,0.20044 7.8e-4,0.002 c -1.8101,0.67665 -3.08803,2.31196 -3.08803,4.22537 0,0.81338 0.23305,1.5747 0.63702,2.23582 -2.19309,0.98584 -3.72429,3.12533 -3.72429,5.62605 0,3.43219 2.86741,6.21492 6.40447,6.21492 2.53958,0 5.09546,-0.54614 7.4043,-1.29347 1.74251,0.80794 4.42425,1.29347 8.46162,1.29347 3.1463,0 5.69674,-2.55044 5.69674,-5.69674 0,-1.69047 -0.74034,-3.20457 -1.91031,-4.24868 z"
           id="path1039"
           style="fill:#e6e6e6;stroke-width:0.776865" />
        <path
           style="fill:#e6e6e6;stroke:#999999;stroke-width:0.5;stroke-linecap:round;stroke-linejoin:miter;stroke-miterlimit:4;stroke-dasharray:none;stroke-opacity:1"
           d="m 35.401935,166.4618 c 0,0 -9.8796,-4.51981 -10.08448,-10.5475"
           id="path1041" />
        <path
           style="fill:#e6e6e6;stroke:#999999;stroke-width:0.5;stroke-linecap:round;stroke-linejoin:miter;stroke-miterlimit:4;stroke-dasharray:none;stroke-opacity:1"
           d="m 47.649965,157.81074 c 0,0 -21.23011,-2.04655 -19.34469,-8.56007"
           id="path1043" />
        <path
           style="fill:#e6e6e6;stroke:#999999;stroke-width:0.5;stroke-linecap:round;stroke-linejoin:miter;stroke-miterlimit:4;stroke-dasharray:none;stroke-opacity:1"
           d="m 44.753045,151.03725 c 0,0 -14.57088,-2.72213 -12.33505,-6.98479"
           id="path1045" />
        <path
           style="fill:#e6e6e6;stroke:#999999;stroke-width:0.5;stroke-linecap:round;stroke-linejoin:miter;stroke-miterlimit:4;stroke-dasharray:none;stroke-opacity:1"
           d="m 40.840745,145.35682 c 0,0 -7.93781,-2.63444 -6.18692,-5.56702"
           id="path1047" />
      </g>
    </g>
  </g>
</svg>
