<?xml version="1.0" encoding="UTF-8" standalone="no"?>
<svg
   xmlns:dc="http://purl.org/dc/elements/1.1/"
   xmlns:cc="http://creativecommons.org/ns#"
   xmlns:rdf="http://www.w3.org/1999/02/22-rdf-syntax-ns#"
   xmlns:svg="http://www.w3.org/2000/svg"
   xmlns="http://www.w3.org/2000/svg"
   xmlns:sodipodi="http://sodipodi.sourceforge.net/DTD/sodipodi-0.dtd"
   xmlns:inkscape="http://www.inkscape.org/namespaces/inkscape"
   width="210mm"
   height="297mm"
   viewBox="0 0 210 297"
   version="1.1"
   id="svg8"
   inkscape:version="1.0.2 (e86c870879, 2021-01-15, custom)"
   sodipodi:docname="tinfoil mashup.svg">
  <defs
     id="defs2" />
  <sodipodi:namedview
     id="base"
     pagecolor="#ffffff"
     bordercolor="#666666"
     borderopacity="1.0"
     inkscape:pageopacity="0.0"
     inkscape:pageshadow="2"
     inkscape:zoom="1.4"
     inkscape:cx="330.17289"
     inkscape:cy="549.99033"
     inkscape:document-units="mm"
     inkscape:current-layer="layer1"
     inkscape:document-rotation="0"
     showgrid="false"
     inkscape:window-width="1915"
     inkscape:window-height="1198"
     inkscape:window-x="1531"
     inkscape:window-y="47"
     inkscape:window-maximized="0" />
  <metadata
     id="metadata5">
    <rdf:RDF>
      <cc:Work
         rdf:about="">
        <dc:format>image/svg+xml</dc:format>
        <dc:type
           rdf:resource="http://purl.org/dc/dcmitype/StillImage" />
        <dc:title></dc:title>
      </cc:Work>
    </rdf:RDF>
  </metadata>
  <g
     inkscape:label="Layer 1"
     inkscape:groupmode="layer"
     id="layer1">
    <g
       id="g928"
       transform="matrix(0.94074074,0,0,0.94074074,17.256264,62.460337)">
      <path
         fill="#da2f47"
         d="M 36,18 C 36,27.941 27.941,36 18,36 8.06,36 0,27.941 0,18 0,8.06 8.06,0 18,0 27.941,0 36,8.06 36,18"
         id="path908" />
      <path
         fill="#292f33"
         d="M 25.485,29.879 C 25.44,29.7 24.317,25.5 18,25.5 c -6.318,0 -7.44,4.2 -7.485,4.379 -0.055,0.217 0.043,0.442 0.237,0.554 0.195,0.109 0.439,0.079 0.6,-0.077 C 11.371,30.337 13.306,28.5 18,28.5 c 4.694,0 6.63,1.837 6.648,1.855 0.096,0.095 0.224,0.145 0.352,0.145 0.084,0 0.169,-0.021 0.246,-0.064 0.196,-0.112 0.294,-0.339 0.239,-0.557 z M 15.707,15.293 C 12.452,12.038 7.221,12 7,12 6.448,12 6.001,12.447 6.001,12.998 6,13.55 6.447,13.998 6.999,14 7.028,14 8.924,14.023 10.982,14.737 10.389,15.377 10,16.371 10,17.5 c 0,1.934 1.119,3.5 2.5,3.5 1.381,0 2.5,-1.566 2.5,-3.5 0,-0.174 -0.019,-0.34 -0.037,-0.507 0.013,0 0.025,0.007 0.037,0.007 0.256,0 0.512,-0.098 0.707,-0.293 0.391,-0.391 0.391,-1.023 0,-1.414 z M 29,12 c -0.221,0 -5.451,0.038 -8.707,3.293 -0.391,0.391 -0.391,1.023 0,1.414 C 20.488,16.902 20.744,17 21,17 21.013,17 21.024,16.993 21.036,16.993 21.02,17.16 21,17.326 21,17.5 21,19.434 22.119,21 23.5,21 24.881,21 26,19.434 26,17.5 26,16.371 25.611,15.377 25.018,14.737 27.076,14.023 28.972,14 29.002,14 29.553,13.998 30,13.55 29.999,12.998 29.998,12.447 29.552,12 29,12 Z"
         id="path910" />
      <path
         fill="#292f33"
         d="M 29.739,33 H 6.261 C 5.017,33 4,31.983 4,30.739 V 25 C 4,23.756 5.017,22.739 6.261,22.739 H 29.739 C 30.983,22.739 32,23.756 32,25 v 5.739 C 32,31.983 30.983,33 29.739,33 Z"
         id="path912" />
      <path
         d="M 7.841,27.229 H 7.023 c -0.314,0 -0.457,-0.229 -0.457,-0.457 0,-0.228 0.143,-0.456 0.457,-0.456 h 0.95 l 0.209,-1.53 c 0.047,-0.342 0.19,-0.456 0.475,-0.456 0.228,0 0.438,0.151 0.438,0.38 0,0.143 0,0.076 -0.019,0.229 l -0.19,1.378 h 0.913 l 0.209,-1.53 c 0.047,-0.342 0.19,-0.456 0.475,-0.456 0.228,0 0.438,0.151 0.438,0.38 0,0.143 0,0.076 -0.019,0.229 l -0.191,1.378 h 0.818 c 0.314,0 0.456,0.229 0.456,0.456 0,0.228 -0.143,0.457 -0.456,0.457 h -0.951 l -0.152,1.083 h 0.818 c 0.314,0 0.456,0.229 0.456,0.457 0,0.228 -0.143,0.456 -0.456,0.456 h -0.951 l -0.209,1.53 c -0.048,0.343 -0.191,0.456 -0.476,0.456 -0.228,0 -0.438,-0.151 -0.438,-0.38 0,-0.143 0,-0.076 0.019,-0.229 L 9.38,29.226 H 8.468 l -0.209,1.53 c -0.048,0.343 -0.19,0.456 -0.476,0.456 -0.228,0 -0.438,-0.151 -0.438,-0.38 0,-0.143 0,-0.076 0.019,-0.229 l 0.19,-1.378 H 6.738 c -0.313,0 -0.456,-0.229 -0.456,-0.456 0,-0.229 0.143,-0.457 0.456,-0.457 h 0.951 z m 0.77,1.083 H 9.514 L 9.666,27.229 H 8.763 Z m 4.616,-2.5 c 0,-0.827 0.618,-1.54 1.464,-1.54 0.846,0 1.464,0.713 1.464,1.54 0,0.827 -0.618,1.531 -1.464,1.531 -0.847,0.001 -1.464,-0.703 -1.464,-1.531 z m 1.958,0 c 0,-0.304 -0.181,-0.57 -0.494,-0.57 -0.314,0 -0.495,0.267 -0.495,0.57 0,0.305 0.181,0.562 0.495,0.562 0.313,0 0.494,-0.257 0.494,-0.562 z m 2.31,-1.292 c 0.124,-0.237 0.219,-0.304 0.438,-0.304 0.295,0 0.561,0.237 0.561,0.532 0,0.076 0,0.143 -0.076,0.285 l -3.194,5.979 c -0.143,0.199 -0.2,0.313 -0.428,0.313 -0.247,0 -0.542,-0.237 -0.542,-0.522 0,-0.143 0.057,-0.275 0.095,-0.352 z m -0.922,5.219 c 0,-0.827 0.618,-1.54 1.464,-1.54 0.846,0 1.464,0.713 1.464,1.54 0,0.826 -0.618,1.53 -1.464,1.53 -0.847,0.001 -1.464,-0.704 -1.464,-1.53 z m 1.958,0 c 0,-0.305 -0.181,-0.57 -0.495,-0.57 -0.314,0 -0.495,0.266 -0.495,0.57 0,0.304 0.181,0.561 0.495,0.561 0.314,0 0.495,-0.257 0.495,-0.561 z m 2.486,0.789 c 0,-0.409 0.333,-0.742 0.741,-0.742 0.409,0 0.742,0.333 0.742,0.742 0,0.408 -0.333,0.741 -0.742,0.741 -0.408,0.001 -0.741,-0.332 -0.741,-0.741 z m 0.057,-5.609 c 0,-0.399 0.294,-0.646 0.684,-0.646 0.381,0 0.685,0.257 0.685,0.646 v 3.66 c 0,0.39 -0.304,0.646 -0.685,0.646 -0.39,0 -0.684,-0.247 -0.684,-0.646 z m 8.078,6.407 c -0.187,0 -0.304,-0.053 -0.431,-0.196 l -0.724,-0.79 -0.072,0.066 c -0.702,0.645 -1.308,0.919 -2.024,0.919 -1.109,0 -2.229,-0.632 -2.229,-2.044 0,-1.107 0.867,-1.769 1.384,-2.065 l 0.117,-0.067 -0.095,-0.098 c -0.425,-0.445 -0.599,-0.813 -0.599,-1.269 0,-1.077 0.983,-1.567 1.896,-1.567 0.764,0 1.84,0.453 1.84,1.458 0,0.951 -0.883,1.501 -1.153,1.647 l -0.115,0.062 1.161,1.341 0.444,-0.536 c 0.247,-0.297 0.391,-0.422 0.646,-0.422 0.205,0 0.424,0.184 0.424,0.523 0,0.254 -0.252,0.585 -0.499,0.875 l -0.297,0.335 0.706,0.838 c 0.131,0.156 0.185,0.239 0.185,0.428 0.001,0.295 -0.269,0.562 -0.565,0.562 z m -3.447,-3.474 c -0.428,0.287 -0.864,0.665 -0.864,1.291 0,0.656 0.427,1.079 1.089,1.079 0.552,0 0.909,-0.242 1.275,-0.606 l 0.071,-0.069 -1.5,-1.743 z m 0.671,-2.711 c -0.28,0 -0.67,0.229 -0.67,0.602 0,0.348 0.171,0.56 0.534,0.929 l 0.051,0.052 0.063,-0.033 c 0.497,-0.26 0.749,-0.553 0.749,-0.869 10e-4,-0.468 -0.376,-0.681 -0.727,-0.681 z"
         fill="#ffffff"
         id="path914" />
    </g>
    <g
       id="g950"
       transform="matrix(0.99607843,0,0,0.99607843,69.913415,58.813418)">
      <path
         fill="#ffcb4c"
         d="M 35,17 C 35,26.389 27.389,34 18,34 8.611,34 1,26.389 1,17 1,7.611 8.611,0 18,0 27.389,0 35,7.611 35,17"
         id="path930" />
      <ellipse
         fill="#65471b"
         cx="17.812"
         cy="23.125"
         rx="4.0619998"
         ry="1.9299999"
         id="ellipse932" />
      <path
         fill="#f19020"
         d="m 25.35,25.981 -0.033,-0.02 c -0.839,-0.515 -1.947,-0.25 -2.462,0.589 l -0.151,0.245 c -0.542,-0.562 -1.25,-0.974 -2.068,-1.141 l -1.399,-0.286 1.272,-6.224 c 0.197,-0.965 -0.431,-1.915 -1.395,-2.112 l -0.038,-0.008 c -0.965,-0.197 -1.915,0.431 -2.112,1.395 l -1.673,8.183 -0.015,0.074 -0.313,1.531 -10e-4,0.01 -1.128,5.533 c -0.22,1.078 0.27,2.25 1.895,2.25 H 19 c 2.804,0 3.635,-1.01 4.198,-3.093 l 2.741,-4.463 c 0.514,-0.839 0.25,-1.947 -0.589,-2.463 z"
         id="path934" />
      <path
         fill="#65471b"
         d="m 22.409,30.743 c -0.02,0 -0.042,-0.002 -0.064,-0.006 -0.184,-0.034 -0.305,-0.212 -0.269,-0.397 0.059,-0.312 -0.002,-0.587 -0.187,-0.839 -0.59,-0.808 -2.289,-1.175 -2.894,-1.248 -0.186,-0.022 -0.319,-0.192 -0.296,-0.377 0.022,-0.186 0.184,-0.321 0.377,-0.296 0.101,0.011 2.474,0.31 3.36,1.521 0.298,0.407 0.401,0.868 0.306,1.368 -0.031,0.161 -0.173,0.274 -0.333,0.274 z m -3.259,4.73 c -0.253,0 -0.53,-0.031 -0.833,-0.102 -0.61,-0.144 -1.04,-0.499 -1.18,-0.975 -0.118,-0.401 -0.01,-0.825 0.289,-1.135 0.388,-0.402 1.003,-0.534 1.695,-0.358 0.181,0.046 0.291,0.231 0.245,0.413 -0.046,0.18 -0.229,0.291 -0.413,0.245 -0.445,-0.114 -0.825,-0.05 -1.038,0.171 -0.128,0.132 -0.175,0.309 -0.127,0.473 0.069,0.236 0.319,0.421 0.685,0.506 1.18,0.277 1.833,-0.186 2.174,-0.625 0.508,-0.653 0.568,-1.538 0.387,-1.885 -0.422,-0.812 -2.049,-0.992 -2.64,-0.993 -0.187,0 -0.339,-0.152 -0.339,-0.339 0,-0.187 0.152,-0.339 0.339,-0.339 0.103,0 2.542,0.015 3.242,1.359 0.305,0.585 0.218,1.751 -0.454,2.614 -0.308,0.394 -0.943,0.97 -2.032,0.97 z M 14.222,13.222 c 0,1.391 -0.846,2.519 -1.889,2.519 -1.043,0 -1.889,-1.127 -1.889,-2.519 0,-1.391 0.845,-2.519 1.889,-2.519 1.043,0.001 1.889,1.128 1.889,2.519 z m 15.664,-2.951 c 0.222,0 0.445,-0.069 0.637,-0.213 0.47,-0.352 0.564,-1.018 0.212,-1.487 -3.466,-4.622 -8.092,-4.675 -8.287,-4.675 -0.587,0 -1.062,0.476 -1.062,1.063 0,0.585 0.473,1.06 1.058,1.062 0.166,0.002 3.792,0.091 6.592,3.825 0.208,0.278 0.527,0.425 0.85,0.425 z m -8.108,2.951 c 0,1.391 0.846,2.519 1.889,2.519 1.043,0 1.889,-1.127 1.889,-2.519 0,-1.391 -0.845,-2.519 -1.889,-2.519 -1.044,0.001 -1.889,1.128 -1.889,2.519 z M 6.114,10.271 C 5.892,10.271 5.669,10.202 5.477,10.058 5.008,9.706 4.913,9.04 5.265,8.571 8.731,3.949 13.357,3.896 13.552,3.896 c 0.587,0 1.062,0.476 1.062,1.063 0,0.585 -0.473,1.06 -1.058,1.062 -0.166,0.002 -3.792,0.091 -6.592,3.825 -0.208,0.278 -0.527,0.425 -0.85,0.425 z"
         id="path936" />
    </g>
    <g
       id="g1215">
      <g
         id="g868"
         transform="matrix(0.94056858,0,0,0.94056858,135.68754,162.30483)">
        <path
           fill="#ffcb4c"
           d="M 35.597,14.232 C 37.68,23.952 31.489,33.521 21.769,35.604 12.049,37.687 2.48,31.496 0.397,21.776 -1.686,12.056 4.506,2.487 14.225,0.404 23.945,-1.68 33.514,4.512 35.597,14.232"
           id="path833" />
        <path
           fill="#f4f7f9"
           d="m 29.284,9.012 c 0.779,3.636 -1.537,7.216 -5.173,7.995 -3.636,0.779 -7.216,-1.537 -7.996,-5.173 -0.779,-3.636 1.537,-7.216 5.173,-7.995 3.636,-0.779 7.217,1.536 7.996,5.173 z"
           id="path835" />
        <circle
           fill="#292f33"
           cx="22.306"
           cy="9.2910004"
           r="2.0369999"
           id="circle837" />
        <path
           fill="#f4f7f9"
           d="m 14.088,14.282 c 0.456,2.126 -0.899,4.219 -3.025,4.675 -2.126,0.456 -4.219,-0.899 -4.675,-3.025 -0.456,-2.126 0.899,-4.219 3.025,-4.675 2.126,-0.456 4.219,0.899 4.675,3.025 z"
           id="path839" />
        <circle
           transform="rotate(-12.095,10.236,15.853)"
           fill="#292f33"
           cx="10.238"
           cy="15.857"
           id="ellipse841"
           r="1.942" />
        <path
           fill="#65471b"
           d="m 18.625,20.937 c -3.543,0.759 -5.981,0.85 -9.01,0.908 -0.691,0.015 -1.955,0.419 -1.536,2.375 0.838,3.911 6.379,7.837 12.642,6.495 6.262,-1.342 9.708,-7.194 8.87,-11.105 -0.419,-1.956 -1.739,-1.808 -2.375,-1.536 -2.786,1.187 -5.048,2.104 -8.591,2.863 z"
           id="path843" />
        <path
           fill="#e8596e"
           d="m 11,24.004 v 6 c 0,3 2,6 6,6 4,0 6,-3 6,-6 v -6 z"
           id="path845" />
        <path
           fill="#dd2f45"
           d="m 17,31.883 c 0.301,0 0.545,-0.244 0.545,-0.545 v -6.295 h -1.091 v 6.295 c 10e-4,0.301 0.245,0.545 0.546,0.545 z"
           id="path847" />
        <path
           fill="#ffffff"
           d="m 10.034,23.801 c 0,0 3.143,0.349 9.01,-0.908 5.867,-1.257 8.591,-2.864 8.591,-2.864 0,0 -1.117,4.33 -7.962,5.797 -6.845,1.467 -9.639,-2.025 -9.639,-2.025 z"
           id="path849" />
      </g>
      <g
         id="g1171">
        <path
           fill="#bf6952"
           d="m 164.71329,158.05675 c 0.28279,-1.2259 0.18878,-2.53724 -0.35581,-3.84237 -0.5267,-1.26241 -1.43485,-2.26069 -2.54111,-2.93112 0.24704,-0.92602 0.18178,-1.92275 -0.25171,-2.91324 -0.65334,-1.49158 -2.06646,-2.48675 -3.66059,-2.76719 0.19344,-0.44437 0.2556,-1.00138 0.028,-1.68348 -0.77688,-2.33058 -3.88434,-0.77686 -6.21492,-3.88354 -1.89556,1.13734 -2.30729,2.82779 -2.23583,4.26266 -1.88078,0.32007 -2.95209,0.72714 -2.95209,0.72714 v 0.001 c -1.05653,0.42727 -1.80387,1.46283 -1.80387,2.67397 0,0.68286 0.24704,1.30203 0.64324,1.7961 l -0.53759,0.20044 7.8e-4,0.002 c -1.8101,0.67665 -3.08803,2.31196 -3.08803,4.22537 0,0.81338 0.23305,1.5747 0.63702,2.23582 -2.19309,0.98584 -3.72429,3.12533 -3.72429,5.62605 0,3.43219 2.86741,6.21492 6.40447,6.21492 2.53958,0 5.09546,-0.54614 7.4043,-1.29347 1.74251,0.80794 4.42425,1.29347 8.46162,1.29347 3.1463,0 5.69674,-2.55044 5.69674,-5.69674 0,-1.69047 -0.74034,-3.20457 -1.91031,-4.24868 z"
           id="path870"
           style="fill:#e6e6e6;stroke-width:0.776865"
           sodipodi:nodetypes="ccccccccccscccscsscsscc" />
        <path
           style="fill:#e6e6e6;stroke:#999999;stroke-width:0.5;stroke-linecap:round;stroke-linejoin:miter;stroke-miterlimit:4;stroke-dasharray:none;stroke-opacity:1"
           d="m 152.46526,166.70781 c 0,0 -9.8796,-4.51981 -10.08448,-10.5475"
           id="path960"
           sodipodi:nodetypes="cc" />
        <path
           style="fill:#e6e6e6;stroke:#999999;stroke-width:0.5;stroke-linecap:round;stroke-linejoin:miter;stroke-miterlimit:4;stroke-dasharray:none;stroke-opacity:1"
           d="m 164.71329,158.05675 c 0,0 -21.23011,-2.04655 -19.34469,-8.56007"
           id="path962" />
        <path
           style="fill:#e6e6e6;stroke:#999999;stroke-width:0.5;stroke-linecap:round;stroke-linejoin:miter;stroke-miterlimit:4;stroke-dasharray:none;stroke-opacity:1"
           d="m 161.81637,151.28326 c 0,0 -14.57088,-2.72213 -12.33505,-6.98479"
           id="path966" />
        <path
           style="fill:#e6e6e6;stroke:#999999;stroke-width:0.5;stroke-linecap:round;stroke-linejoin:miter;stroke-miterlimit:4;stroke-dasharray:none;stroke-opacity:1"
           d="m 157.90407,145.60283 c 0,0 -7.93781,-2.63444 -6.18692,-5.56702"
           id="path968" />
      </g>
    </g>
    <g
       id="g1233">
      <path
         fill="#bf6952"
         d="m 48.65001,30.86689 c 0.28279,-1.2259 0.18878,-2.53724 -0.35581,-3.84237 -0.5267,-1.26241 -1.43485,-2.26069 -2.54111,-2.93112 0.24704,-0.92602 0.18178,-1.92275 -0.25171,-2.91324 -0.65334,-1.49158 -2.06646,-2.48675 -3.66059,-2.76719 0.19344,-0.44437 0.2556,-1.00138 0.028,-1.68348 -0.77688,-2.33058 -3.88434,-0.77686 -6.21492,-3.88354 -1.89556,1.13734 -2.30729,2.82779 -2.23583,4.26266 -1.88078,0.32007 -2.95209,0.72714 -2.95209,0.72714 v 10e-4 c -1.05653,0.42727 -1.80387,1.46283 -1.80387,2.67397 0,0.68286 0.24704,1.30203 0.64324,1.7961 l -0.53759,0.20044 7.8e-4,0.002 c -1.8101,0.67665 -3.08803,2.31196 -3.08803,4.22537 0,0.81338 0.23305,1.5747 0.63702,2.23582 -2.19309,0.98584 -3.72429,3.12533 -3.72429,5.62605 0,3.43219 2.86741,6.21492 6.40447,6.21492 2.53958,0 5.09546,-0.54614 7.4043,-1.29347 1.74251,0.80794 4.42425,1.29347 8.46162,1.29347 3.1463,0 5.69674,-2.55044 5.69674,-5.69674 0,-1.69047 -0.74034,-3.20457 -1.91031,-4.24868 z"
         id="path977"
         style="fill:#e6e6e6;stroke-width:0.776865"
         sodipodi:nodetypes="ccccccccccscccscsscsscc" />
      <path
         style="fill:#e6e6e6;stroke:#999999;stroke-width:0.5;stroke-linecap:round;stroke-linejoin:miter;stroke-miterlimit:4;stroke-dasharray:none;stroke-opacity:1"
         d="m 36.40198,39.51795 c 0,0 -9.8796,-4.51981 -10.08448,-10.5475"
         id="path979"
         sodipodi:nodetypes="cc" />
      <path
         style="fill:#e6e6e6;stroke:#999999;stroke-width:0.5;stroke-linecap:round;stroke-linejoin:miter;stroke-miterlimit:4;stroke-dasharray:none;stroke-opacity:1"
         d="m 48.65001,30.86689 c 0,0 -21.23011,-2.04655 -19.34469,-8.56007"
         id="path981" />
      <path
         style="fill:#e6e6e6;stroke:#999999;stroke-width:0.5;stroke-linecap:round;stroke-linejoin:miter;stroke-miterlimit:4;stroke-dasharray:none;stroke-opacity:1"
         d="m 45.75309,24.0934 c 0,0 -14.57088,-2.72213 -12.33505,-6.98479"
         id="path983" />
      <path
         style="fill:#e6e6e6;stroke:#999999;stroke-width:0.5;stroke-linecap:round;stroke-linejoin:miter;stroke-miterlimit:4;stroke-dasharray:none;stroke-opacity:1"
         d="m 41.84079,18.41297 c 0,0 -7.93781,-2.63444 -6.18692,-5.56702"
         id="path985" />
    </g>
    <g
       id="g1007"
       transform="matrix(0.94056858,0,0,0.94056858,135.66295,57.415563)">
      <path
         fill="#ffcb4c"
         d="M 35.597,14.232 C 37.68,23.952 31.489,33.521 21.769,35.604 12.049,37.687 2.48,31.496 0.397,21.776 -1.686,12.056 4.506,2.487 14.225,0.404 23.945,-1.68 33.514,4.512 35.597,14.232"
         id="path989" />
      <path
         fill="#f4f7f9"
         d="m 29.284,9.012 c 0.779,3.636 -1.537,7.216 -5.173,7.995 -3.636,0.779 -7.216,-1.537 -7.996,-5.173 -0.779,-3.636 1.537,-7.216 5.173,-7.995 3.636,-0.779 7.217,1.536 7.996,5.173 z"
         id="path991" />
      <circle
         fill="#292f33"
         cx="22.306"
         cy="9.2910004"
         r="2.0369999"
         id="circle993" />
      <path
         fill="#f4f7f9"
         d="m 14.088,14.282 c 0.456,2.126 -0.899,4.219 -3.025,4.675 -2.126,0.456 -4.219,-0.899 -4.675,-3.025 -0.456,-2.126 0.899,-4.219 3.025,-4.675 2.126,-0.456 4.219,0.899 4.675,3.025 z"
         id="path995" />
      <circle
         transform="rotate(-12.095,10.236,15.853)"
         fill="#292f33"
         cx="10.238"
         cy="15.857"
         id="circle997"
         r="1.942" />
      <path
         fill="#65471b"
         d="m 18.625,20.937 c -3.543,0.759 -5.981,0.85 -9.01,0.908 -0.691,0.015 -1.955,0.419 -1.536,2.375 0.838,3.911 6.379,7.837 12.642,6.495 6.262,-1.342 9.708,-7.194 8.87,-11.105 -0.419,-1.956 -1.739,-1.808 -2.375,-1.536 -2.786,1.187 -5.048,2.104 -8.591,2.863 z"
         id="path999" />
      <path
         fill="#e8596e"
         d="m 11,24.004 v 6 c 0,3 2,6 6,6 4,0 6,-3 6,-6 v -6 z"
         id="path1001" />
      <path
         fill="#dd2f45"
         d="m 17,31.883 c 0.301,0 0.545,-0.244 0.545,-0.545 v -6.295 h -1.091 v 6.295 c 10e-4,0.301 0.245,0.545 0.546,0.545 z"
         id="path1003" />
      <path
         fill="#ffffff"
         d="m 10.034,23.801 c 0,0 3.143,0.349 9.01,-0.908 5.867,-1.257 8.591,-2.864 8.591,-2.864 0,0 -1.117,4.33 -7.962,5.797 -6.845,1.467 -9.639,-2.025 -9.639,-2.025 z"
         id="path1005" />
    </g>
    <g
       id="g1184">
      <g
         id="g1037"
         transform="matrix(0.94074074,0,0,0.94074074,17.768124,162.56788)">
        <path
           fill="#da2f47"
           d="M 36,18 C 36,27.941 27.941,36 18,36 8.06,36 0,27.941 0,18 0,8.06 8.06,0 18,0 27.941,0 36,8.06 36,18"
           id="path1029" />
        <path
           fill="#292f33"
           d="M 25.485,29.879 C 25.44,29.7 24.317,25.5 18,25.5 c -6.318,0 -7.44,4.2 -7.485,4.379 -0.055,0.217 0.043,0.442 0.237,0.554 0.195,0.109 0.439,0.079 0.6,-0.077 C 11.371,30.337 13.306,28.5 18,28.5 c 4.694,0 6.63,1.837 6.648,1.855 0.096,0.095 0.224,0.145 0.352,0.145 0.084,0 0.169,-0.021 0.246,-0.064 0.196,-0.112 0.294,-0.339 0.239,-0.557 z M 15.707,15.293 C 12.452,12.038 7.221,12 7,12 6.448,12 6.001,12.447 6.001,12.998 6,13.55 6.447,13.998 6.999,14 7.028,14 8.924,14.023 10.982,14.737 10.389,15.377 10,16.371 10,17.5 c 0,1.934 1.119,3.5 2.5,3.5 1.381,0 2.5,-1.566 2.5,-3.5 0,-0.174 -0.019,-0.34 -0.037,-0.507 0.013,0 0.025,0.007 0.037,0.007 0.256,0 0.512,-0.098 0.707,-0.293 0.391,-0.391 0.391,-1.023 0,-1.414 z M 29,12 c -0.221,0 -5.451,0.038 -8.707,3.293 -0.391,0.391 -0.391,1.023 0,1.414 C 20.488,16.902 20.744,17 21,17 21.013,17 21.024,16.993 21.036,16.993 21.02,17.16 21,17.326 21,17.5 21,19.434 22.119,21 23.5,21 24.881,21 26,19.434 26,17.5 26,16.371 25.611,15.377 25.018,14.737 27.076,14.023 28.972,14 29.002,14 29.553,13.998 30,13.55 29.999,12.998 29.998,12.447 29.552,12 29,12 Z"
           id="path1031" />
        <path
           fill="#292f33"
           d="M 29.739,33 H 6.261 C 5.017,33 4,31.983 4,30.739 V 25 C 4,23.756 5.017,22.739 6.261,22.739 H 29.739 C 30.983,22.739 32,23.756 32,25 v 5.739 C 32,31.983 30.983,33 29.739,33 Z"
           id="path1033" />
        <path
           d="M 7.841,27.229 H 7.023 c -0.314,0 -0.457,-0.229 -0.457,-0.457 0,-0.228 0.143,-0.456 0.457,-0.456 h 0.95 l 0.209,-1.53 c 0.047,-0.342 0.19,-0.456 0.475,-0.456 0.228,0 0.438,0.151 0.438,0.38 0,0.143 0,0.076 -0.019,0.229 l -0.19,1.378 h 0.913 l 0.209,-1.53 c 0.047,-0.342 0.19,-0.456 0.475,-0.456 0.228,0 0.438,0.151 0.438,0.38 0,0.143 0,0.076 -0.019,0.229 l -0.191,1.378 h 0.818 c 0.314,0 0.456,0.229 0.456,0.456 0,0.228 -0.143,0.457 -0.456,0.457 h -0.951 l -0.152,1.083 h 0.818 c 0.314,0 0.456,0.229 0.456,0.457 0,0.228 -0.143,0.456 -0.456,0.456 h -0.951 l -0.209,1.53 c -0.048,0.343 -0.191,0.456 -0.476,0.456 -0.228,0 -0.438,-0.151 -0.438,-0.38 0,-0.143 0,-0.076 0.019,-0.229 L 9.38,29.226 H 8.468 l -0.209,1.53 c -0.048,0.343 -0.19,0.456 -0.476,0.456 -0.228,0 -0.438,-0.151 -0.438,-0.38 0,-0.143 0,-0.076 0.019,-0.229 l 0.19,-1.378 H 6.738 c -0.313,0 -0.456,-0.229 -0.456,-0.456 0,-0.229 0.143,-0.457 0.456,-0.457 h 0.951 z m 0.77,1.083 H 9.514 L 9.666,27.229 H 8.763 Z m 4.616,-2.5 c 0,-0.827 0.618,-1.54 1.464,-1.54 0.846,0 1.464,0.713 1.464,1.54 0,0.827 -0.618,1.531 -1.464,1.531 -0.847,0.001 -1.464,-0.703 -1.464,-1.531 z m 1.958,0 c 0,-0.304 -0.181,-0.57 -0.494,-0.57 -0.314,0 -0.495,0.267 -0.495,0.57 0,0.305 0.181,0.562 0.495,0.562 0.313,0 0.494,-0.257 0.494,-0.562 z m 2.31,-1.292 c 0.124,-0.237 0.219,-0.304 0.438,-0.304 0.295,0 0.561,0.237 0.561,0.532 0,0.076 0,0.143 -0.076,0.285 l -3.194,5.979 c -0.143,0.199 -0.2,0.313 -0.428,0.313 -0.247,0 -0.542,-0.237 -0.542,-0.522 0,-0.143 0.057,-0.275 0.095,-0.352 z m -0.922,5.219 c 0,-0.827 0.618,-1.54 1.464,-1.54 0.846,0 1.464,0.713 1.464,1.54 0,0.826 -0.618,1.53 -1.464,1.53 -0.847,0.001 -1.464,-0.704 -1.464,-1.53 z m 1.958,0 c 0,-0.305 -0.181,-0.57 -0.495,-0.57 -0.314,0 -0.495,0.266 -0.495,0.57 0,0.304 0.181,0.561 0.495,0.561 0.314,0 0.495,-0.257 0.495,-0.561 z m 2.486,0.789 c 0,-0.409 0.333,-0.742 0.741,-0.742 0.409,0 0.742,0.333 0.742,0.742 0,0.408 -0.333,0.741 -0.742,0.741 -0.408,0.001 -0.741,-0.332 -0.741,-0.741 z m 0.057,-5.609 c 0,-0.399 0.294,-0.646 0.684,-0.646 0.381,0 0.685,0.257 0.685,0.646 v 3.66 c 0,0.39 -0.304,0.646 -0.685,0.646 -0.39,0 -0.684,-0.247 -0.684,-0.646 z m 8.078,6.407 c -0.187,0 -0.304,-0.053 -0.431,-0.196 l -0.724,-0.79 -0.072,0.066 c -0.702,0.645 -1.308,0.919 -2.024,0.919 -1.109,0 -2.229,-0.632 -2.229,-2.044 0,-1.107 0.867,-1.769 1.384,-2.065 l 0.117,-0.067 -0.095,-0.098 c -0.425,-0.445 -0.599,-0.813 -0.599,-1.269 0,-1.077 0.983,-1.567 1.896,-1.567 0.764,0 1.84,0.453 1.84,1.458 0,0.951 -0.883,1.501 -1.153,1.647 l -0.115,0.062 1.161,1.341 0.444,-0.536 c 0.247,-0.297 0.391,-0.422 0.646,-0.422 0.205,0 0.424,0.184 0.424,0.523 0,0.254 -0.252,0.585 -0.499,0.875 l -0.297,0.335 0.706,0.838 c 0.131,0.156 0.185,0.239 0.185,0.428 0.001,0.295 -0.269,0.562 -0.565,0.562 z m -3.447,-3.474 c -0.428,0.287 -0.864,0.665 -0.864,1.291 0,0.656 0.427,1.079 1.089,1.079 0.552,0 0.909,-0.242 1.275,-0.606 l 0.071,-0.069 -1.5,-1.743 z m 0.671,-2.711 c -0.28,0 -0.67,0.229 -0.67,0.602 0,0.348 0.171,0.56 0.534,0.929 l 0.051,0.052 0.063,-0.033 c 0.497,-0.26 0.749,-0.553 0.749,-0.869 10e-4,-0.468 -0.376,-0.681 -0.727,-0.681 z"
           fill="#ffffff"
           id="path1035" />
      </g>
      <g
         id="g1157">
        <path
           fill="#bf6952"
           d="m 47.649965,157.81074 c 0.28279,-1.2259 0.18878,-2.53724 -0.35581,-3.84237 -0.5267,-1.26241 -1.43485,-2.26069 -2.54111,-2.93112 0.24704,-0.92602 0.18178,-1.92275 -0.25171,-2.91324 -0.65334,-1.49158 -2.06646,-2.48675 -3.66059,-2.76719 0.19344,-0.44437 0.2556,-1.00138 0.028,-1.68348 -0.77688,-2.33058 -3.88434,-0.77686 -6.21492,-3.88354 -1.89556,1.13734 -2.30729,2.82779 -2.23583,4.26266 -1.88078,0.32007 -2.95209,0.72714 -2.95209,0.72714 v 0.001 c -1.05653,0.42727 -1.80387,1.46283 -1.80387,2.67397 0,0.68286 0.24704,1.30203 0.64324,1.7961 l -0.53759,0.20044 7.8e-4,0.002 c -1.8101,0.67665 -3.08803,2.31196 -3.08803,4.22537 0,0.81338 0.23305,1.5747 0.63702,2.23582 -2.19309,0.98584 -3.72429,3.12533 -3.72429,5.62605 0,3.43219 2.86741,6.21492 6.40447,6.21492 2.53958,0 5.09546,-0.54614 7.4043,-1.29347 1.74251,0.80794 4.42425,1.29347 8.46162,1.29347 3.1463,0 5.69674,-2.55044 5.69674,-5.69674 0,-1.69047 -0.74034,-3.20457 -1.91031,-4.24868 z"
           id="path1039"
           style="fill:#e6e6e6;stroke-width:0.776865"
           sodipodi:nodetypes="ccccccccccscccscsscsscc" />
        <path
           style="fill:#e6e6e6;stroke:#999999;stroke-width:0.5;stroke-linecap:round;stroke-linejoin:miter;stroke-miterlimit:4;stroke-dasharray:none;stroke-opacity:1"
           d="m 35.401935,166.4618 c 0,0 -9.8796,-4.51981 -10.08448,-10.5475"
           id="path1041"
           sodipodi:nodetypes="cc" />
        <path
           style="fill:#e6e6e6;stroke:#999999;stroke-width:0.5;stroke-linecap:round;stroke-linejoin:miter;stroke-miterlimit:4;stroke-dasharray:none;stroke-opacity:1"
           d="m 47.649965,157.81074 c 0,0 -21.23011,-2.04655 -19.34469,-8.56007"
           id="path1043" />
        <path
           style="fill:#e6e6e6;stroke:#999999;stroke-width:0.5;stroke-linecap:round;stroke-linejoin:miter;stroke-miterlimit:4;stroke-dasharray:none;stroke-opacity:1"
           d="m 44.753045,151.03725 c 0,0 -14.57088,-2.72213 -12.33505,-6.98479"
           id="path1045" />
        <path
           style="fill:#e6e6e6;stroke:#999999;stroke-width:0.5;stroke-linecap:round;stroke-linejoin:miter;stroke-miterlimit:4;stroke-dasharray:none;stroke-opacity:1"
           d="m 40.840745,145.35682 c 0,0 -7.93781,-2.63444 -6.18692,-5.56702"
           id="path1047" />
      </g>
    </g>
    <g
       id="g1197">
      <g
         id="g1059"
         transform="matrix(0.99607843,0,0,0.99607843,75.772046,162.56788)">
        <path
           fill="#ffcb4c"
           d="M 35,17 C 35,26.389 27.389,34 18,34 8.611,34 1,26.389 1,17 1,7.611 8.611,0 18,0 27.389,0 35,7.611 35,17"
           id="path1051" />
        <ellipse
           fill="#65471b"
           cx="17.812"
           cy="23.125"
           rx="4.0619998"
           ry="1.9299999"
           id="ellipse1053" />
        <path
           fill="#f19020"
           d="m 25.35,25.981 -0.033,-0.02 c -0.839,-0.515 -1.947,-0.25 -2.462,0.589 l -0.151,0.245 c -0.542,-0.562 -1.25,-0.974 -2.068,-1.141 l -1.399,-0.286 1.272,-6.224 c 0.197,-0.965 -0.431,-1.915 -1.395,-2.112 l -0.038,-0.008 c -0.965,-0.197 -1.915,0.431 -2.112,1.395 l -1.673,8.183 -0.015,0.074 -0.313,1.531 -10e-4,0.01 -1.128,5.533 c -0.22,1.078 0.27,2.25 1.895,2.25 H 19 c 2.804,0 3.635,-1.01 4.198,-3.093 l 2.741,-4.463 c 0.514,-0.839 0.25,-1.947 -0.589,-2.463 z"
           id="path1055" />
        <path
           fill="#65471b"
           d="m 22.409,30.743 c -0.02,0 -0.042,-0.002 -0.064,-0.006 -0.184,-0.034 -0.305,-0.212 -0.269,-0.397 0.059,-0.312 -0.002,-0.587 -0.187,-0.839 -0.59,-0.808 -2.289,-1.175 -2.894,-1.248 -0.186,-0.022 -0.319,-0.192 -0.296,-0.377 0.022,-0.186 0.184,-0.321 0.377,-0.296 0.101,0.011 2.474,0.31 3.36,1.521 0.298,0.407 0.401,0.868 0.306,1.368 -0.031,0.161 -0.173,0.274 -0.333,0.274 z m -3.259,4.73 c -0.253,0 -0.53,-0.031 -0.833,-0.102 -0.61,-0.144 -1.04,-0.499 -1.18,-0.975 -0.118,-0.401 -0.01,-0.825 0.289,-1.135 0.388,-0.402 1.003,-0.534 1.695,-0.358 0.181,0.046 0.291,0.231 0.245,0.413 -0.046,0.18 -0.229,0.291 -0.413,0.245 -0.445,-0.114 -0.825,-0.05 -1.038,0.171 -0.128,0.132 -0.175,0.309 -0.127,0.473 0.069,0.236 0.319,0.421 0.685,0.506 1.18,0.277 1.833,-0.186 2.174,-0.625 0.508,-0.653 0.568,-1.538 0.387,-1.885 -0.422,-0.812 -2.049,-0.992 -2.64,-0.993 -0.187,0 -0.339,-0.152 -0.339,-0.339 0,-0.187 0.152,-0.339 0.339,-0.339 0.103,0 2.542,0.015 3.242,1.359 0.305,0.585 0.218,1.751 -0.454,2.614 -0.308,0.394 -0.943,0.97 -2.032,0.97 z M 14.222,13.222 c 0,1.391 -0.846,2.519 -1.889,2.519 -1.043,0 -1.889,-1.127 -1.889,-2.519 0,-1.391 0.845,-2.519 1.889,-2.519 1.043,0.001 1.889,1.128 1.889,2.519 z m 15.664,-2.951 c 0.222,0 0.445,-0.069 0.637,-0.213 0.47,-0.352 0.564,-1.018 0.212,-1.487 -3.466,-4.622 -8.092,-4.675 -8.287,-4.675 -0.587,0 -1.062,0.476 -1.062,1.063 0,0.585 0.473,1.06 1.058,1.062 0.166,0.002 3.792,0.091 6.592,3.825 0.208,0.278 0.527,0.425 0.85,0.425 z m -8.108,2.951 c 0,1.391 0.846,2.519 1.889,2.519 1.043,0 1.889,-1.127 1.889,-2.519 0,-1.391 -0.845,-2.519 -1.889,-2.519 -1.044,0.001 -1.889,1.128 -1.889,2.519 z M 6.114,10.271 C 5.892,10.271 5.669,10.202 5.477,10.058 5.008,9.706 4.913,9.04 5.265,8.571 8.731,3.949 13.357,3.896 13.552,3.896 c 0.587,0 1.062,0.476 1.062,1.063 0,0.585 -0.473,1.06 -1.058,1.062 -0.166,0.002 -3.792,0.091 -6.592,3.825 -0.208,0.278 -0.527,0.425 -0.85,0.425 z"
           id="path1057" />
      </g>
      <g
         id="g1164">
        <path
           fill="#bf6952"
           d="m 106.48037,156.66811 c 0.28279,-1.2259 0.18878,-2.53724 -0.35581,-3.84237 -0.5267,-1.26241 -1.43485,-2.26069 -2.54111,-2.93112 0.24704,-0.92602 0.18178,-1.92275 -0.25171,-2.91324 -0.65334,-1.49158 -2.06646,-2.48675 -3.660593,-2.76719 0.19344,-0.44437 0.2556,-1.00138 0.028,-1.68348 -0.77688,-2.33058 -3.88434,-0.77686 -6.21492,-3.88354 -1.89556,1.13734 -2.30729,2.82779 -2.23583,4.26266 -1.88078,0.32007 -2.95209,0.72714 -2.95209,0.72714 v 0.001 c -1.05653,0.42727 -1.80387,1.46283 -1.80387,2.67397 0,0.68286 0.24704,1.30203 0.64324,1.7961 l -0.53759,0.20044 7.8e-4,0.002 c -1.8101,0.67665 -3.08803,2.31196 -3.08803,4.22537 0,0.81338 0.23305,1.5747 0.63702,2.23582 -2.19309,0.98584 -3.72429,3.12533 -3.72429,5.62605 0,3.43219 2.86741,6.21492 6.40447,6.21492 2.53958,0 5.09546,-0.54614 7.4043,-1.29347 1.74251,0.80794 4.42425,1.29347 8.461623,1.29347 3.1463,0 5.69674,-2.55044 5.69674,-5.69674 0,-1.69047 -0.74034,-3.20457 -1.91031,-4.24868 z"
           id="path1061"
           style="fill:#e6e6e6;stroke-width:0.776865"
           sodipodi:nodetypes="ccccccccccscccscsscsscc" />
        <path
           style="fill:#e6e6e6;stroke:#999999;stroke-width:0.5;stroke-linecap:round;stroke-linejoin:miter;stroke-miterlimit:4;stroke-dasharray:none;stroke-opacity:1"
           d="m 94.232337,165.31917 c 0,0 -9.8796,-4.51981 -10.08448,-10.5475"
           id="path1063"
           sodipodi:nodetypes="cc" />
        <path
           style="fill:#e6e6e6;stroke:#999999;stroke-width:0.5;stroke-linecap:round;stroke-linejoin:miter;stroke-miterlimit:4;stroke-dasharray:none;stroke-opacity:1"
           d="m 106.48037,156.66811 c 0,0 -21.230113,-2.04655 -19.344693,-8.56007"
           id="path1065" />
        <path
           style="fill:#e6e6e6;stroke:#999999;stroke-width:0.5;stroke-linecap:round;stroke-linejoin:miter;stroke-miterlimit:4;stroke-dasharray:none;stroke-opacity:1"
           d="m 103.58345,149.89462 c 0,0 -14.570883,-2.72213 -12.335053,-6.98479"
           id="path1067" />
        <path
           style="fill:#e6e6e6;stroke:#999999;stroke-width:0.5;stroke-linecap:round;stroke-linejoin:miter;stroke-miterlimit:4;stroke-dasharray:none;stroke-opacity:1"
           d="m 99.671147,144.21419 c 0,0 -7.93781,-2.63444 -6.18692,-5.56702"
           id="path1069" />
      </g>
    </g>
  </g>
</svg>
